<svg xmlns="http://www.w3.org/2000/svg" fill="none" stroke="currentColor" stroke-width="1.4" stroke-linecap="round" stroke-linejoin="round">
  <symbol id="environment" viewBox="0 0 24 24"><path d="M3 21V5h11v16M14 11h7v10M1 21h22M6 8h2m3 0h1M6 12h2m3 0h1M6 16h2m3 0h1M17 14h1m-1 3h1"/></symbol>
  <symbol id="evaluation" viewBox="0 0 24 24"><path d="M9 3H5v18h14V3h-4M9 2h6v4H9zM8 12l2 2 5-5M8 18h7"/></symbol>
  <symbol id="training" viewBox="0 0 24 24"><path d="M3 19V5m0 14h18M6 15l4-5 4 2 6-8M17 4h3v3"/><circle cx="10" cy="10" r="1"/><circle cx="14" cy="12" r="1"/></symbol>
  <symbol id="harness" viewBox="0 0 24 24"><rect x="2" y="8" width="6" height="8" rx="1"/><rect x="16" y="8" width="6" height="8" rx="1"/><path d="M8 10h8m-3-3 3 3-3 3M16 15H8m3-3-3 3 3 3"/></symbol>
  <symbol id="finance" viewBox="0 0 24 24"><path d="M3 21h18M4 9l8-6 8 6ZM5 9v12m5-12v12m4-12v12m5-12v12"/></symbol>
  <symbol id="assurance" viewBox="0 0 24 24"><path d="m12 2 8 3v7c0 4-4 7-8 10-4-3-8-6-8-10V5ZM8 11l3 3 5-6"/></symbol>
  <symbol id="clinical" viewBox="0 0 24 24"><path d="M9 3h6v6h6v6h-6v6H9v-6H3V9h6Z"/></symbol>
  <symbol id="design" viewBox="0 0 24 24"><path d="m4 17-1 4 4-1L21 6l-4-4ZM14 5l5 5M4 17l3 3M3 4h6M3 8h3"/></symbol>
  <symbol id="entertainment" viewBox="0 0 24 24"><rect x="3" y="4" width="18" height="16" rx="1"/><path d="M7 4v16m10-16v16M3 8h4M3 12h4M3 16h4m10-8h4m-4 4h4m-4 4h4M10 9l4 3-4 3Z"/></symbol>
  <symbol id="industrial" viewBox="0 0 24 24"><path d="M2 21V9l7 4V8l7 5V3h4v18ZM5 17h2m4 0h2m4 0h1"/></symbol>
  <symbol id="legal" viewBox="0 0 24 24"><path d="M12 3v18M7 21h10M4 6h16M5 6l-3 8h6ZM19 6l-3 8h6Z"/><circle cx="12" cy="5" r="2"/></symbol>
  <symbol id="software" viewBox="0 0 24 24"><rect x="2" y="4" width="20" height="16" rx="1"/><path d="M2 8h20M6 12l3 3-3 2m6 0h5"/></symbol>
  <symbol id="file" viewBox="0 0 24 24"><path d="M5 2h9l5 5v15H5ZM14 2v5h5M8 11h8M8 15h8M8 19h5"/></symbol>
  <symbol id="sheet" viewBox="0 0 24 24"><path d="M4 3h16v18H4ZM4 8h16M4 13h16M4 17h16M10 8v13"/></symbol>
  <symbol id="cube" viewBox="0 0 24 24"><path d="m12 2 9 5v10l-9 5-9-5V7ZM3 7l9 5 9-5M12 12v10M7.5 4.5l9 5"/></symbol>
  <symbol id="folder" viewBox="0 0 24 24"><path d="M2 5h7l2 3h11v12H2ZM2 8h9"/></symbol>
  <symbol id="code" viewBox="0 0 24 24"><path d="m8 6-6 6 6 6m8-12 6 6-6 6M14 3l-4 18"/></symbol>
</svg>
